# xmcd
# 
# Track frame offsets:
#     150
#     2212
#     19467
#     41810
#     65235
#     86517
#     103375
#     120160
#     136645
#     151840
# 
# Disc length: 2256
# 
# Revision: 2
# Processed by: cddbd v1.5.2PL0 Copyright (c) Steve Scherf et al.
# Submitted via: fre:ac v1.0.17
# 
DISCID=7f08ce0a
DTITLE=Δήμος Μούτσης - ΓΙΑ ΠΟΥΛΗΜΑ ΛΟΙΠΟΝ
DYEAR=1994
DGENRE=
TTITLE0=Εισαγωγή
TTITLE1=Για πούλημα λοιπόν
TTITLE2=Ποτέ πια
TTITLE3=Κάτι τρέχει
TTITLE4=Δεν έχω μέσον
TTITLE5=Πάντα υπάρχει...
TTITLE6=Ο Κύριος τίποτα
TTITLE7=Ταξιδεύω για πουθενά
TTITLE8=Δε με νοιάζει η γνώμη σας
TTITLE9=Μα κατα βάθος...
EXTD=
EXTT0=
EXTT1=
EXTT2=
EXTT3=
EXTT4=
EXTT5=
EXTT6=
EXTT7=
EXTT8=
EXTT9=
PLAYORDER=
